PathFileType	4	(X/Y/Z)	RBDS002static.trc
DataRate	CameraRate	NumFrames	NumMarkers	Units	OrigDataRate	OrigDataStartFrame	OrigNumFrames
150.000000	150.000000	4	48	mm	150.000000	131	150
Frame#	Time	L.Ankle			L.Ankle.Medial			L.ASIS			L.GTR			L.Heel.Bottom			L.Heel.Lateral			L.Heel.Top			L.HF			L.Iliac.Crest			L.Knee			L.Knee.Medial			L.MT1			L.MT2			L.MT5			L.PSIS			L.Shank.Bottom.Lateral			L.Shank.Bottom.Medial			L.Shank.Top.Lateral			L.Shank.Top.Medial			L.Thigh.Bottom.Lateral			L.Thigh.Bottom.Medial			L.Thigh.Top.Lateral			L.Thigh.Top.Medial			L.TT			R.Ankle			R.Ankle.Medial			R.ASIS			R.GTR			R.Heel.Bottom			R.Heel.Lateral			R.Heel.Top			R.HF			R.Iliac.Crest			R.Knee			R.Knee.Medial			R.MT1			R.MT2			R.MT5			R.PSIS			R.Shank.Bottom.Lateral			R.Shank.Bottom.Medial			R.Shank.Top.Lateral			R.Shank.Top.Medial			R.Thigh.Bottom.Lateral			R.Thigh.Bottom.Medial			R.Thigh.Top.Lateral			R.Thigh.Top.Medial			R.TT			
		X1	Y1	Z1	X2	Y2	Z2	X3	Y3	Z3	X4	Y4	Z4	X5	Y5	Z5	X6	Y6	Z6	X7	Y7	Z7	X8	Y8	Z8	X9	Y9	Z9	X10	Y10	Z10	X11	Y11	Z11	X12	Y12	Z12	X13	Y13	Z13	X14	Y14	Z14	X15	Y15	Z15	X16	Y16	Z16	X17	Y17	Z17	X18	Y18	Z18	X19	Y19	Z19	X20	Y20	Z20	X21	Y21	Z21	X22	Y22	Z22	X23	Y23	Z23	X24	Y24	Z24	X25	Y25	Z25	X26	Y26	Z26	X27	Y27	Z27	X28	Y28	Z28	X29	Y29	Z29	X30	Y30	Z30	X31	Y31	Z31	X32	Y32	Z32	X33	Y33	Z33	X34	Y34	Z34	X35	Y35	Z35	X36	Y36	Z36	X37	Y37	Z37	X38	Y38	Z38	X39	Y39	Z39	X40	Y40	Z40	X41	Y41	Z41	X42	Y42	Z42	X43	Y43	Z43	X44	Y44	Z44	X45	Y45	Z45	X46	Y46	Z46	X47	Y47	Z47	X48	Y48	Z48	

132	0.8733333333333334	713.1865844726563	106.3154449462891	1030.5615234375	735.4151611328125	119.1089859008789	1112.096069335938	854.2501831054688	1050.409301757813	1108.96728515625	775.9750366210938	953.7958374023438	1032.284301757813	637.3698120117188	44.16786956787109	1072.23779296875	670.4730834960938	55.16849136352539	1027.258544921875	648.8536987304688	94.17845153808594	1071.402587890625	723.40283203125	484.0335083007813	1008.204528808594	768.0360107421875	1129.343139648438	1052.094970703125	736.2955322265625	552.0341796875	1012.001342773438	715.1537475585938	530.016357421875	1140.746948242188	864.999267578125	63.61388778686523	1121.716186523438	871.5518798828125	71.22443389892578	1073.806884765625	838.7525024414063	47.46450805664063	1005.159545898438	666.5193481445313	1096.468017578125	1167.433471679688	701.798095703125	176.4471893310547	1020.323120117188	663.0680541992188	175.6416015625	1054.2900390625	691.4968872070313	255.2566680908203	1004.60546875	653.0675659179688	259.2886352539063	1041.251098632813	726.0504150390625	649.025146484375	1010.963134765625	673.5850219726563	641.942138671875	1061.902954101563	715.1282348632813	758.871826171875	1020.130493164063	668.57568359375	752.2208862304688	1070.348266601563	782.4754638671875	462.8222961425781	1062.787963867188	709.9772338867188	104.9677658081055	1411.24462890625	733.0413818359375	121.26708984375	1327.316650390625	849.9634399414063	1049.819702148438	1327.232543945313	767.8683471679688	964.6331176757813	1399.321655273438	632.5625	44.06421661376953	1374.5849609375	658.0608520507813	59.20803833007813	1412.332153320313	644.7442626953125	94.44551849365234	1373.236694335938	734.0784912109375	486.6069641113281	1422.9677734375	764.9931030273438	1132.900390625	1374.616821289063	734.5792846679688	558.76220703125	1415.82568359375	722.235595703125	535.9144287109375	1285.10205078125	862.514892578125	66.22701263427734	1323.613525390625	865.8904418945313	74.71293640136719	1366.875366210938	838.3934936523438	56.96473693847656	1435.791381835938	665.1795654296875	1098.176025390625	1256.530151367188	697.44873046875	189.1303100585938	1423.643310546875	657.5477905273438	191.3157653808594	1386.452392578125	688.7173461914063	268.9207153320313	1435.7763671875	651.2247314453125	270.4306030273438	1396.391723632813	718.8154907226563	660.1366577148438	1418.268432617188	665.917724609375	657.747802734375	1366.191162109375	710.66796875	770.7029418945313	1417.586669921875	661.450927734375	767.9386596679688	1367.447143554688	789.2362670898438	475.6291809082031	1367.64306640625	
133	0.88	713.1881713867188	106.3174438476563	1030.570190429688	735.406982421875	119.1220321655273	1112.091796875	854.2821655273438	1050.406616210938	1108.984008789063	775.99560546875	953.7884521484375	1032.29052734375	637.3704833984375	44.17487716674805	1072.232421875	670.4729614257813	55.16867446899414	1027.261352539063	648.8574829101563	94.1832275390625	1071.399780273438	723.3997192382813	484.0209350585938	1008.199035644531	768.0715942382813	1129.343627929688	1052.092529296875	736.3046264648438	552.0487060546875	1011.9814453125	715.1679077148438	530.0188598632813	1140.752807617188	865.0038452148438	63.61435699462891	1121.724853515625	871.556640625	71.22392272949219	1073.81103515625	838.748046875	47.46035385131836	1005.168640136719	666.5553588867188	1096.469604492188	1167.435791015625	701.8032836914063	176.4491271972656	1020.315124511719	663.0792236328125	175.6338806152344	1054.292602539063	691.5009155273438	255.2498474121094	1004.599670410156	653.0769653320313	259.2948608398438	1041.249389648438	726.0599975585938	649.0291748046875	1010.964477539063	673.6018676757813	641.9430541992188	1061.898681640625	715.146728515625	758.8782958984375	1020.123413085938	668.5862426757813	752.2239990234375	1070.35107421875	782.478271484375	462.8174743652344	1062.787231445313	709.9835205078125	104.9806365966797	1411.253784179688	733.0487060546875	121.269401550293	1327.319091796875	849.9793701171875	1049.817504882813	1327.23876953125	767.88330078125	964.63330078125	1399.317993164063	632.5607299804688	44.06818771362305	1374.587036132813	658.0602416992188	59.20606231689453	1412.323486328125	644.7443237304688	94.45124816894531	1373.232666015625	734.094970703125	486.6075134277344	1422.962036132813	765.0167846679688	1132.89794921875	1374.614990234375	734.5925903320313	558.76025390625	1415.82568359375	722.23828125	535.9017944335938	1285.0966796875	862.512939453125	66.23005676269531	1323.600219726563	865.8873901367188	74.71195983886719	1366.873657226563	838.3917236328125	56.95981597900391	1435.802490234375	665.2012329101563	1098.181274414063	1256.52587890625	697.4606323242188	189.1318817138672	1423.64404296875	657.5519409179688	191.3097381591797	1386.4501953125	688.7337036132813	268.9098205566406	1435.771240234375	651.2396850585938	270.4305114746094	1396.3837890625	718.83203125	660.1309814453125	1418.263427734375	665.9368896484375	657.7505493164063	1366.188598632813	710.6903686523438	770.6995849609375	1417.587280273438	661.4629516601563	767.9443359375	1367.453369140625	789.2481689453125	475.6275024414063	1367.645629882813	
134	0.8866666666666667	713.1870727539063	106.3159332275391	1030.558471679688	735.4158325195313	119.1144943237305	1112.093994140625	854.3019409179688	1050.403564453125	1108.988525390625	776.0324096679688	953.7949829101563	1032.282348632813	637.3675537109375	44.17787170410156	1072.248168945313	670.4740600585938	55.17130279541016	1027.260620117188	648.8536987304688	94.18586730957031	1071.385864257813	723.4115600585938	484.0263671875	1008.206787109375	768.11328125	1129.345458984375	1052.099853515625	736.3242797851563	552.0347290039063	1011.992980957031	715.1744995117188	530.0156860351563	1140.7490234375	865.0046997070313	63.61264419555664	1121.718872070313	871.55078125	71.22904968261719	1073.806274414063	838.753662109375	47.46379852294922	1005.163146972656	666.5781860351563	1096.471801757813	1167.431030273438	701.80078125	176.4513854980469	1020.304748535156	663.07568359375	175.6379547119141	1054.293701171875	691.506591796875	255.2585144042969	1004.595581054688	653.0731811523438	259.296142578125	1041.249633789063	726.0799560546875	649.0296020507813	1010.9541015625	673.6069946289063	641.9459228515625	1061.900146484375	715.162109375	758.8779907226563	1020.122497558594	668.5955810546875	752.2242431640625	1070.34619140625	782.4903564453125	462.8113403320313	1062.782470703125	709.989013671875	104.983642578125	1411.251342773438	733.0550537109375	121.2625274658203	1327.297973632813	849.98828125	1049.817749023438	1327.252563476563	767.895751953125	964.6318969726563	1399.318115234375	632.5617065429688	44.06995391845703	1374.585693359375	658.0663452148438	59.21043395996094	1412.325561523438	644.74853515625	94.45442962646484	1373.23193359375	734.1087646484375	486.607177734375	1422.957275390625	765.029541015625	1132.88671875	1374.612182617188	734.610107421875	558.7562866210938	1415.824584960938	722.2569580078125	535.9104614257813	1285.100708007813	862.515380859375	66.22722625732422	1323.614379882813	865.8937377929688	74.71878814697266	1366.86328125	838.3933715820313	56.96485900878906	1435.7939453125	665.2210693359375	1098.171875	1256.526245117188	697.453369140625	189.1298522949219	1423.636962890625	657.5625	191.31640625	1386.444702148438	688.7465209960938	268.9122314453125	1435.767578125	651.2474975585938	270.431884765625	1396.383544921875	718.849609375	660.1315307617188	1418.255493164063	665.9469604492188	657.7521362304688	1366.191650390625	710.7070922851563	770.6978149414063	1417.590576171875	661.4785766601563	767.94287109375	1367.445434570313	789.2704467773438	475.6271362304688	1367.636962890625	
135	0.8933333333333334	713.1965942382813	106.3212509155273	1030.5556640625	735.4229736328125	119.115104675293	1112.088745117188	854.3258056640625	1050.406616210938	1109.000122070313	776.0538940429688	953.7994995117188	1032.285400390625	637.370849609375	44.17489624023438	1072.2412109375	670.4749145507813	55.17246246337891	1027.259399414063	648.8552856445313	94.17900085449219	1071.39599609375	723.4231567382813	484.0137023925781	1008.208923339844	768.1319580078125	1129.351318359375	1052.099365234375	736.336669921875	552.0336303710938	1011.988586425781	715.1865844726563	530.0216674804688	1140.757202148438	865.0021362304688	63.62197875976563	1121.720092773438	871.5579833984375	71.22727966308594	1073.802856445313	838.7521362304688	47.46233749389648	1005.162658691406	666.609375	1096.469360351563	1167.430053710938	701.8170166015625	176.4517822265625	1020.310607910156	663.0752563476563	175.6458282470703	1054.286743164063	691.5097045898438	255.2584228515625	1004.591064453125	653.0789794921875	259.3113098144531	1041.2421875	726.0892944335938	649.0244750976563	1010.953002929688	673.6265258789063	641.9406127929688	1061.902221679688	715.1777954101563	758.8679809570313	1020.125	668.6057739257813	752.2276000976563	1070.334838867188	782.51708984375	462.8043518066406	1062.769775390625	709.9923706054688	104.9811630249023	1411.253051757813	733.05029296875	121.2636871337891	1327.307250976563	850.0069580078125	1049.817016601563	1327.263305664063	767.9159545898438	964.623046875	1399.324829101563	632.5619506835938	44.07189559936523	1374.585327148438	658.0697021484375	59.20528793334961	1412.330200195313	644.7473754882813	94.45323944091797	1373.231811523438	734.1204833984375	486.6116027832031	1422.962036132813	765.039794921875	1132.888793945313	1374.614990234375	734.6586303710938	558.7947998046875	1415.932373046875	722.2611083984375	535.9113159179688	1285.099731445313	862.5106811523438	66.22714233398438	1323.610961914063	865.8889770507813	74.71402740478516	1366.870483398438	838.4027709960938	56.96595764160156	1435.79296875	665.240234375	1098.18115234375	1256.519775390625	697.4678344726563	189.1398315429688	1423.639038085938	657.5658569335938	191.3197326660156	1386.449829101563	688.7474365234375	268.9278869628906	1435.775146484375	651.2547607421875	270.4363708496094	1396.377563476563	718.86962890625	660.132080078125	1418.25390625	665.9705810546875	657.7503662109375	1366.182006835938	710.7261352539063	770.6953125	1417.586059570313	661.50146484375	767.9420776367188	1367.447998046875	789.2842407226563	475.6300354003906	1367.63720703125	
